<svg xmlns="http://www.w3.org/2000/svg" xmlns:xlink="http://www.w3.org/1999/xlink" version="1.1" x="0px" y="0px" viewBox="0 0 100 125" style="enable-background:new 0 0 100 100;" xml:space="preserve"><g><path d="M37.7,13.4c-6.8,0-12.4,5.6-12.4,12.4c0,0.5,0,1,0.1,1.5c-0.9-0.2-1.8-0.2-2.7-0.1c-2.4,0.5-4.6,2.6-5.5,5.5   c-1,2.9-0.8,6.2,0.5,8.8c-3.2,1.1-5.7,3.6-6.9,7.2c-2.2,6.3,0.1,12,6.5,16.2c-1.8,3.1-2,7-0.5,10c1.1,2.2,3.1,3.8,5.4,4.4   c2.4,0.6,5,0.2,7.3-1.3c0,0,0,0,0.1,0c1,2,2.7,5.2,4.3,7.1c0,0,0,0,0,0c0.1,0.1,0.1,0.1,0.2,0.2c0.1,0.2,0.2,0.3,0.4,0.5   c1.7,1.8,4,2.8,6.5,2.8c4.4,0,8.1-3.1,8.8-7.5c0,0,0,0,0,0c0,0,0,0,0,0c0,0,0,0,0,0c0,0,0,0,0,0c0.1-0.5,0.1-0.9,0.1-1.5V26.2   C49.9,19.1,44.5,13.4,37.7,13.4z M47.9,27.8c-0.6,2.9-4.1,7.2-8,7.2c-2.8,0-5.4-1-6.8-2.6c-0.4-0.4-1-0.5-1.4-0.1   c-0.4,0.4-0.5,1-0.1,1.4c1.2,1.3,2.9,2.3,5,2.8c-0.7,1.2-1.7,3.4-1.4,6c0.3,2.4,1.7,4.6,4.1,6.4c0.2,0.1,0.4,0.2,0.6,0.2   c0.3,0,0.6-0.1,0.8-0.4c0.3-0.4,0.2-1.1-0.2-1.4c-2-1.5-3.1-3.2-3.3-5c-0.4-2.9,1.5-5.4,1.5-5.4c0,0,0,0,0,0c0.4,0,0.8,0.1,1.2,0.1   c3.3,0,6.2-2.1,8-4.6v25.3c-3.4,0.2-12.5,0-14.6-6.3c-0.2-0.5-0.7-0.8-1.3-0.6c-0.5,0.2-0.8,0.7-0.6,1.3c0.5,1.4,1.3,2.6,2.2,3.6   c-1.9,0.8-6.7,3.4-9,10.8c-0.2,0.5,0.1,1.1,0.7,1.3c0.1,0,0.2,0,0.3,0c0.4,0,0.8-0.3,1-0.7c2.5-8,8.2-9.7,8.5-9.7   c0.1,0,0.3-0.1,0.4-0.2c3.3,2.2,7.8,2.7,10.9,2.7c0.6,0,1.2,0,1.7,0v20c0,0.4,0,0.8-0.1,1.1c0,0,0,0,0,0c0,0,0,0,0,0   c-0.5,3.3-3.5,5.8-6.9,5.8c-1.9,0-3.7-0.7-5-2.1c0.1-1.8,1-8.8,8.1-9.5c0.5-0.1,0.9-0.5,0.9-1.1c-0.1-0.5-0.6-1-1.1-0.9   c-6.7,0.7-8.9,6-9.6,9.3c-1.2-1.9-2.5-4.2-3.1-5.6c1.1-1,3.2-3.6,4.5-8.8c0.1-0.5-0.2-1.1-0.7-1.2c-0.5-0.1-1.1,0.2-1.2,0.7   c-1.5,6.1-4.3,8.2-4.3,8.2c0,0,0,0,0,0c0,0,0,0,0,0c-0.3,0.3-0.6,0.5-0.9,0.7c-1.8,1.1-3.8,1.5-5.6,1c-1.8-0.5-3.3-1.7-4.2-3.4   c-1.4-2.7-1-6.2,0.9-8.9c0.3-0.4,0.2-1.1-0.2-1.4c-0.1-0.1-0.2-0.1-0.3-0.2c-4.3-2.6-8.9-7.1-6.4-14.3c1.1-3.1,3.3-5.3,6.1-6.1   c0.6,0.9,1.9,2.5,3.9,3.4c0.1,0.1,0.3,0.1,0.4,0.1c0.4,0,0.8-0.2,0.9-0.6c0.2-0.5,0-1.1-0.5-1.3c-2.2-0.9-3.2-3.1-3.3-3.1   c0,0,0,0,0-0.1c0,0,0-0.1,0-0.1c-1.6-2.2-1.9-5.4-1-8.2c0.7-2.2,2.3-3.9,4-4.2c1.1-0.2,2.2,0,3.1,0.6c0,0,0,0,0.1,0   c0.1,0,0.2,0.1,0.2,0.1c0,0,0.1,0,0.1,0c0,0,0.1,0,0.1,0c0,0,0.1,0,0.1,0c0,0,0.1,0,0.1,0c0,0,0,0,0,0c0,0,0.1,0,0.1-0.1   c0.1,0,0.1-0.1,0.2-0.1c0.1,0,0.1-0.1,0.1-0.2c0,0,0.1-0.1,0.1-0.1c0,0,0,0,0,0c0-0.1,0.1-0.1,0.1-0.2c0-0.1,0-0.1,0.1-0.2   c0-0.1,0-0.1,0-0.2c0-0.1,0-0.1,0-0.2c0,0,0,0,0,0c-0.3-0.9-0.4-1.9-0.4-2.9c0-5.7,4.7-10.4,10.4-10.4c5.5,0,10.2,5,10.2,10.9V27.8   z"/><path d="M90.1,48.3c-1.2-3.6-3.7-6.1-6.9-7.2c1.3-2.6,1.5-5.8,0.5-8.8c-1-2.9-3.1-5.1-5.5-5.5c-0.9-0.2-1.8-0.2-2.7,0.1   c0.1-0.5,0.1-1,0.1-1.5C75.6,18.6,70,13,63.2,13C56.5,13,51,18.8,51,25.9v53.4c0,0.5,0,1,0.1,1.5c0,0,0,0,0,0c0,0,0,0,0,0   c0,0,0,0,0,0c0,0,0,0,0,0c0.7,4.3,4.4,7.5,8.8,7.5c2.8,0,5.3-1.3,7.1-3.4c0,0,0,0,0,0c1.6-1.9,3.3-5.1,4.3-7.1c0,0,0,0,0.1,0   c2.2,1.5,4.8,1.9,7.3,1.3c2.3-0.6,4.3-2.2,5.4-4.4c1.6-3.1,1.4-6.9-0.5-10C90,60.4,92.3,54.7,90.1,48.3z M81.9,63.3   c-0.1,0-0.2,0.1-0.3,0.2c-0.4,0.3-0.5,0.9-0.2,1.4c1.9,2.6,2.3,6.2,0.9,8.9c-0.9,1.7-2.4,2.9-4.2,3.4c-1.9,0.5-3.9,0.1-5.6-1   c-0.3-0.2-0.6-0.5-0.9-0.7c-0.2-0.2-0.6-0.3-0.9-0.2c-0.3,0.1-0.6,0.3-0.7,0.6c-0.6,1.6-2.8,5.6-4.5,7.8c0,0,0,0,0,0c0,0,0,0,0,0   c-1.3,1.7-3.3,2.7-5.5,2.7c-3.4,0-6.3-2.5-6.9-5.8c0,0,0,0,0,0c0,0,0,0,0,0C53,80.1,53,79.7,53,79.3V25.9C53,20,57.7,15,63.2,15   c5.7,0,10.4,4.7,10.4,10.4c0,1-0.1,1.9-0.4,2.9c0,0,0,0,0,0c0,0.1,0,0.1,0,0.2c0,0.1,0,0.1,0,0.2c0,0.1,0,0.1,0.1,0.2   c0,0.1,0,0.1,0.1,0.2c0,0,0,0,0,0c0,0,0.1,0.1,0.1,0.1c0,0.1,0.1,0.1,0.1,0.2c0.1,0,0.1,0.1,0.2,0.1c0,0,0.1,0.1,0.1,0.1   c0,0,0,0,0,0c0,0,0.1,0,0.1,0c0.1,0,0.1,0,0.2,0c0,0,0.1,0,0.1,0c0,0,0.1,0,0.1,0c0.1,0,0.2-0.1,0.2-0.1c0,0,0,0,0.1,0   c1-0.6,2-0.8,3.1-0.6c1.7,0.3,3.3,2,4,4.2c0.9,2.8,0.6,6-1,8.2c-0.2,0.3-0.2,0.6-0.1,0.9s0.4,0.5,0.7,0.6c3.1,0.6,5.6,2.9,6.7,6.2   C90.7,56.2,86.1,60.7,81.9,63.3z"/><path d="M72,46.5h-7.7c-0.3,0-0.5,0.2-0.5,0.5v7.3c0,0.3,0.2,0.5,0.5,0.5H72c0.3,0,0.5-0.2,0.5-0.5V47C72.5,46.7,72.3,46.5,72,46.5   z M71.5,53.8h-6.7v-6.3h6.7V53.8z"/><path d="M75.7,36.6C75.7,36.6,75.7,36.6,75.7,36.6c0.4,1,1.3,1.7,2.4,1.7c1.4,0,2.5-1.1,2.5-2.5c0-1.4-1.1-2.5-2.5-2.5   c-1.3,0-2.4,1.1-2.5,2.4h-4.8c-0.3,0-0.5,0.2-0.5,0.5v7.8h-1.4V31c0-0.3-0.2-0.5-0.5-0.5h-7.6c-0.4-1-1.3-1.6-2.3-1.6   c-1.4,0-2.5,1.1-2.5,2.5s1.1,2.5,2.5,2.5c1.3,0,2.4-1.1,2.5-2.4h6.9v12.4h-1.2v-6c0-0.3-0.2-0.5-0.5-0.5h-1.6   c-0.2-1.2-1.2-2.1-2.5-2.1c-1.4,0-2.5,1.1-2.5,2.5s1.1,2.5,2.5,2.5c1.2,0,2.2-0.8,2.4-2h1.2v5.5h-4.1c-0.3,0-0.5,0.2-0.5,0.5v1.5   H58c-0.3,0-0.5,0.2-0.5,0.5s0.2,0.5,0.5,0.5h3.1v1H58c-0.3,0-0.5,0.2-0.5,0.5s0.2,0.5,0.5,0.5h3.1v1H58c-0.3,0-0.5,0.2-0.5,0.5   s0.2,0.5,0.5,0.5h3.1v1H58c-0.3,0-0.5,0.2-0.5,0.5s0.2,0.5,0.5,0.5h3.1v1H58c-0.3,0-0.5,0.2-0.5,0.5s0.2,0.5,0.5,0.5h3.1v1.9   c0,0.3,0.2,0.5,0.5,0.5h4.1v5.5h-1.2c-0.2-1.1-1.3-2-2.4-2c-1.4,0-2.5,1.1-2.5,2.5c0,1.4,1.1,2.5,2.5,2.5c1.2,0,2.2-0.9,2.5-2.1   h1.6c0.3,0,0.5-0.2,0.5-0.5v-6h1.2v12.4h-6.9c-0.1-1.3-1.2-2.4-2.5-2.4c-1.4,0-2.5,1.1-2.5,2.5s1.1,2.5,2.5,2.5   c1.1,0,2-0.7,2.3-1.6h7.6c0.3,0,0.5-0.2,0.5-0.5V57.4h1.4v8.5c0,0.3,0.2,0.5,0.5,0.5h4.9c0,0,0,0,0,0c0.4,1,1.3,1.6,2.3,1.6   c1.4,0,2.5-1.1,2.5-2.5c0-1.4-1.1-2.5-2.5-2.5c-1.3,0-2.4,1.1-2.5,2.4h-4.3v-8h1v2.7c0,0.3,0.2,0.5,0.5,0.5s0.5-0.2,0.5-0.5v-2.7   h1.5c0.3,0,0.5-0.2,0.5-0.5v-1.9H78c0.3,0,0.5-0.2,0.5-0.5s-0.2-0.5-0.5-0.5h-2.7v-1H78c0.3,0,0.5-0.2,0.5-0.5s-0.2-0.5-0.5-0.5   h-2.7v-1H78c0.3,0,0.5-0.2,0.5-0.5s-0.2-0.5-0.5-0.5h-2.7v-1H78c0.3,0,0.5-0.2,0.5-0.5s-0.2-0.5-0.5-0.5h-2.7v-1H78   c0.3,0,0.5-0.2,0.5-0.5s-0.2-0.5-0.5-0.5h-2.7v-1.5c0-0.3-0.2-0.5-0.5-0.5h-1.5v-2.7c0-0.3-0.2-0.5-0.5-0.5s-0.5,0.2-0.5,0.5v2.7   h-1v-7.3H75.7z M78.1,34.2c0.8,0,1.5,0.7,1.5,1.5c0,0.8-0.7,1.5-1.5,1.5c-0.8,0-1.5-0.7-1.5-1.5C76.5,34.9,77.2,34.2,78.1,34.2z    M58.4,32.9c-0.8,0-1.5-0.7-1.5-1.5s0.7-1.5,1.5-1.5c0.7,0,1.3,0.5,1.5,1.1c0,0,0,0,0,0c0,0.1,0,0.1,0,0.2c0,0.1,0,0.1,0,0.2   C59.9,32.2,59.3,32.9,58.4,32.9z M62.1,39.4c-0.8,0-1.5-0.7-1.5-1.5s0.7-1.5,1.5-1.5c0.8,0,1.5,0.7,1.5,1.5S62.9,39.4,62.1,39.4z    M62.1,64.9c-0.8,0-1.5-0.7-1.5-1.5c0-0.8,0.7-1.5,1.5-1.5c0.8,0,1.5,0.7,1.5,1.5C63.6,64.2,62.9,64.9,62.1,64.9z M58.4,71.4   c-0.8,0-1.5-0.7-1.5-1.5s0.7-1.5,1.5-1.5c0.8,0,1.5,0.7,1.5,1.5c0,0.1,0,0.2,0,0.2c0,0,0,0.1,0,0.1C59.7,70.9,59.1,71.4,58.4,71.4z    M78.1,64c0.8,0,1.5,0.7,1.5,1.5c0,0.8-0.7,1.5-1.5,1.5c-0.8,0-1.5-0.7-1.5-1.5C76.5,64.7,77.2,64,78.1,64z M74.2,56.4H62.1V44.9   h12.2V56.4z"/></g><text x="0" y="115" fill="#000000" font-size="5px" font-weight="bold" font-family="'Helvetica Neue', Helvetica, Arial-Unicode, Arial, Sans-serif">Created by ims.icon</text><text x="0" y="120" fill="#000000" font-size="5px" font-weight="bold" font-family="'Helvetica Neue', Helvetica, Arial-Unicode, Arial, Sans-serif">from the Noun Project</text></svg>